<svg width="81" height="83" viewBox="0 0 81 83" fill="none" xmlns="http://www.w3.org/2000/svg">
<path d="M65.3417 0H15.6575C6.99777 0 0 7.0843 0 15.6554V49.9399C0 58.5985 7.08524 65.5954 15.6575 65.5954H16.0949L14.3454 76.7028C13.9955 78.9768 15.0452 81.1633 17.0571 82.3003C17.9318 82.7376 18.8065 83 19.6812 83C20.9933 83 22.2179 82.5627 23.2676 81.6881L41.8117 65.6828H65.3417C74.0014 65.6828 80.9992 58.5985 80.9992 50.0274V15.6554C81.0867 7.0843 74.0014 0 65.3417 0ZM73.8265 50.0274C73.8265 54.6628 70.0652 58.5111 65.3417 58.5111H40.4996C39.6249 58.5111 38.7502 58.8609 38.1378 59.3857L22.2179 73.0295L23.8799 62.6217C24.0548 61.5722 23.7049 60.5227 23.0926 59.7355C22.3929 58.9484 21.4307 58.5111 20.381 58.5111H15.745C11.109 58.5111 7.26019 54.7503 7.26019 50.0274V15.6554C7.26019 11.02 11.0215 7.17176 15.745 7.17176H65.4292C70.0652 7.17176 73.9139 10.9326 73.9139 15.6554V50.0274H73.8265Z" fill="#FF5C00"/>
</svg>
