<svg width="83" height="81" viewBox="0 0 83 81" fill="none" xmlns="http://www.w3.org/2000/svg">
<path d="M83 37.0931C83 32.3606 79.1558 28.5921 74.5253 28.5921H56.8768C58.5368 24.9989 60.4589 19.39 60.4589 13.4306C60.4589 7.82175 57.4011 3.35218 51.8968 0.723019C49.8 -0.241006 47.3537 -0.241006 45.2568 0.723019C43.16 1.68704 41.6747 3.61509 41.0632 5.80606L40.0147 9.92507C38.0926 17.3744 34.0737 23.8596 28.6568 28.1539C27.9579 28.6797 27.3463 29.1179 26.6474 29.5561C25.3368 27.2775 22.8905 25.7 20.0074 25.7H7.68842C3.40737 25.7 0 29.1179 0 33.4122V73.2878C0 77.5821 3.49474 81 7.68842 81H20.0074C23.1526 81 25.8611 79.072 26.9968 76.4428C34.6853 78.5461 41.7621 79.6854 49.4505 79.6854H68.8463C73.5642 79.6854 77.3211 75.8293 77.3211 71.1845C77.3211 69.607 76.8842 68.2048 76.1853 66.9778C78.5442 65.488 80.1168 62.7712 80.1168 59.7915C80.1168 58.214 79.68 56.8117 78.9811 55.5848C81.34 54.0949 82.9126 51.3781 82.9126 48.3984C82.9126 46.2075 82.0389 44.1918 80.7284 42.7019C82.1263 41.2997 83 39.284 83 37.0931ZM22.1042 73.4631C22.1042 74.6024 21.1432 75.5664 20.0074 75.5664H7.68842C6.55263 75.5664 5.59158 74.6024 5.59158 73.4631V33.5875C5.59158 32.4482 6.55263 31.4842 7.68842 31.4842H20.0074C21.1432 31.4842 22.1042 32.4482 22.1042 33.5875V73.4631ZM69.1958 45.594H74.5253C76.0979 45.594 77.4084 46.9086 77.4084 48.4861C77.4084 50.0636 76.0979 51.3781 74.5253 51.3781H68.1474C66.5747 51.3781 65.3516 52.6051 65.3516 54.1826C65.3516 55.7601 66.5747 56.987 68.1474 56.987H71.7295C73.3021 56.987 74.6126 58.3016 74.6126 59.8791C74.6126 61.4566 73.3021 62.7712 71.7295 62.7712H66.1379C64.5653 62.7712 63.3421 63.9981 63.3421 65.5756C63.3421 67.1531 64.5653 68.38 66.1379 68.38H68.9337C70.5063 68.38 71.8168 69.6946 71.8168 71.2721C71.8168 72.8496 70.5063 74.1642 68.9337 74.1642H49.4505C42.0242 74.1642 35.2095 73.1125 27.6958 71.0092V35.5156C29.1811 34.7268 30.6663 33.7628 32.0642 32.6235C38.4421 27.5404 43.2474 20.0035 45.4316 11.4149L46.48 7.29592C46.6547 6.41953 47.2663 6.06897 47.6158 5.8937C47.9653 5.71842 48.6642 5.54314 49.4505 5.8937C53.0326 7.55883 54.78 10.0127 54.78 13.5183C54.78 22.0192 49.8874 29.9067 49.8 29.9943C49.3632 30.6954 49.3632 31.8347 49.8 32.7111C50.3242 33.5875 51.1979 34.201 52.2463 34.201H74.5253C76.0979 34.201 77.4084 35.5156 77.4084 37.0931C77.4084 38.6705 76.0979 39.9851 74.5253 39.9851H69.1958C67.6232 39.9851 66.4 41.2121 66.4 42.7896C66.4 44.3671 67.6232 45.594 69.1958 45.594Z" fill="#FF5C00"/>
</svg>
