<svg width="82" height="66" viewBox="0 0 82 66" fill="none" xmlns="http://www.w3.org/2000/svg">
<path d="M76.875 12.6923H56.375V2.53846C56.375 1.86522 56.105 1.21955 55.6245 0.743498C55.1439 0.267444 54.4921 0 53.8125 0H28.1875C27.5079 0 26.8561 0.267444 26.3755 0.743498C25.895 1.21955 25.625 1.86522 25.625 2.53846V12.6923H5.125C3.76577 12.6923 2.4622 13.2272 1.50108 14.1793C0.539954 15.1314 0 16.4227 0 17.7692L0 60.9231C0 62.2696 0.539954 63.5609 1.50108 64.513C2.4622 65.4651 3.76577 66 5.125 66H76.875C78.2342 66 79.5378 65.4651 80.4989 64.513C81.46 63.5609 82 62.2696 82 60.9231V17.7692C82 16.4227 81.46 15.1314 80.4989 14.1793C79.5378 13.2272 78.2342 12.6923 76.875 12.6923ZM30.75 5.07692H51.25V12.6923H30.75V5.07692ZM5.125 17.7692H76.875V29.1923C76.875 31.8853 75.7951 34.4679 73.8728 36.3722C71.9506 38.2764 69.3435 39.3462 66.625 39.3462H48.6875V36.8077C48.6875 35.4612 48.1475 34.1699 47.1864 33.2178C46.2253 32.2657 44.9217 31.7308 43.5625 31.7308H38.4375C37.0783 31.7308 35.7747 32.2657 34.8136 33.2178C33.8525 34.1699 33.3125 35.4612 33.3125 36.8077V39.3462H15.375C12.6565 39.3462 10.0494 38.2764 8.12716 36.3722C6.20491 34.4679 5.125 31.8853 5.125 29.1923V17.7692ZM43.5625 46.9615H38.4375V36.8077H43.5625V41.8846V46.9615ZM5.125 60.9231V40.5138C7.93926 43.0226 11.589 44.4146 15.375 44.4231H33.3125V46.9615C33.3125 48.308 33.8525 49.5994 34.8136 50.5515C35.7747 51.5036 37.0783 52.0385 38.4375 52.0385H43.5625C44.9217 52.0385 46.2253 51.5036 47.1864 50.5515C48.1475 49.5994 48.6875 48.308 48.6875 46.9615V44.4231H66.625C70.413 44.4255 74.0666 43.032 76.875 40.5138V60.9231H5.125Z" fill="#FF5C00"/>
</svg>
